<svg xmlns="http://www.w3.org/2000/svg" xmlns:xlink="http://www.w3.org/1999/xlink" width="378" zoomAndPan="magnify" viewBox="0 0 282.96 283.499989" height="378" preserveAspectRatio="xMidYMid meet" version="1.0"><defs><clipPath id="5d76af2769"><path d="M 0.230469 0 L 282.691406 0 L 282.691406 283 L 0.230469 283 Z M 0.230469 0 " clip-rule="nonzero"/></clipPath><clipPath id="941d9c77ff"><path d="M 14 24.359375 L 269 24.359375 L 269 258.695312 L 14 258.695312 Z M 14 24.359375 " clip-rule="nonzero"/></clipPath></defs><g clip-path="url(#5d76af2769)"><path fill="#ffffff" d="M 0.230469 0 L 283.230469 0 L 283.230469 283 L 0.230469 283 Z M 0.230469 0 " fill-opacity="1" fill-rule="nonzero"/><path fill="#ffffff" d="M 0.230469 0 L 283.230469 0 L 283.230469 283 L 0.230469 283 Z M 0.230469 0 " fill-opacity="1" fill-rule="nonzero"/></g><g clip-path="url(#941d9c77ff)"><path fill="#ef4035" d="M 61.753906 239.996094 C 59.632812 243.144531 56.785156 245.867188 53.285156 247.890625 C 40.976562 254.992188 25.21875 250.769531 18.117188 238.464844 C 11.011719 226.160156 15.234375 210.402344 27.539062 203.296875 C 31.042969 201.277344 34.824219 200.171875 38.609375 199.910156 C 33.246094 185.261719 38.070312 168.625 50.628906 159.152344 C 53.023438 131.511719 67.738281 107.371094 89.253906 92.269531 C 91.171875 76.648438 103.167969 64.144531 118.539062 61.464844 C 116.875 58.058594 115.9375 54.230469 115.9375 50.183594 C 115.9375 35.976562 127.472656 24.4375 141.683594 24.4375 C 155.894531 24.4375 167.429688 35.976562 167.429688 50.183594 C 167.429688 54.230469 166.492188 58.058594 164.828125 61.464844 C 180.199219 64.144531 192.199219 76.648438 194.117188 92.269531 C 215.628906 107.371094 230.34375 131.511719 232.738281 159.152344 C 245.296875 168.625 250.121094 185.261719 244.757812 199.910156 C 248.542969 200.171875 252.324219 201.277344 255.828125 203.296875 C 268.132812 210.402344 272.355469 226.160156 265.25 238.464844 C 258.148438 250.769531 242.390625 254.992188 230.082031 247.890625 C 226.582031 245.867188 223.734375 243.144531 221.613281 239.996094 C 211.613281 251.964844 194.796875 256.101562 180.316406 249.964844 C 168.578125 255.453125 155.484375 258.519531 141.683594 258.519531 C 127.882812 258.519531 114.789062 255.453125 103.050781 249.964844 C 88.570312 256.101562 71.753906 251.964844 61.753906 239.996094 Z M 184.796875 223.082031 C 188.746094 224.828125 191.683594 225.257812 194.164062 224.34375 C 196.625 223.445312 198.40625 221.269531 200.273438 218.476562 C 202.660156 214.914062 204.980469 210.378906 207.882812 205.34375 C 210.789062 200.3125 213.558594 196.035156 215.453125 192.1875 C 216.9375 189.171875 217.929688 186.542969 217.480469 183.964844 C 217.027344 181.363281 215.191406 179.035156 211.714844 176.492188 C 209.207031 195.402344 199.207031 211.960938 184.796875 223.082031 Z M 48.109375 201.03125 C 54.054688 202.894531 59.347656 206.902344 62.707031 212.722656 C 66.066406 218.539062 66.890625 225.128906 65.53125 231.210938 C 72.921875 243.546875 88.523438 248.050781 101.285156 241.765625 C 101.835938 241.496094 102.382812 241.207031 102.917969 240.894531 L 127.234375 226.855469 C 128.554688 226.09375 129.515625 224.839844 129.910156 223.371094 C 130.277344 221.988281 130.117188 220.519531 129.464844 219.25 C 129.402344 219.160156 129.339844 219.066406 129.285156 218.972656 C 128.386719 217.414062 126.808594 216.371094 125.027344 216.15625 C 123.242188 215.9375 121.460938 216.570312 120.214844 217.867188 L 120.210938 217.867188 C 116.875 221.332031 112.960938 224.460938 108.53125 227.09375 C 108.320312 227.21875 108.113281 227.34375 107.902344 227.464844 C 98.0625 233.144531 91.421875 233.890625 86.378906 232.039062 C 83.148438 230.851562 80.417969 228.5625 77.910156 225.3125 C 74.847656 221.339844 72.042969 215.777344 68.386719 209.441406 C 64.730469 203.109375 61.3125 197.894531 59.40625 193.257812 C 57.839844 189.460938 57.226562 185.953125 57.8125 182.5625 C 58.730469 177.269531 62.699219 171.890625 72.535156 166.210938 C 72.746094 166.089844 72.957031 165.96875 73.167969 165.851562 C 77.664062 163.328125 82.335938 161.503906 87.019531 160.363281 C 88.765625 159.925781 90.207031 158.699219 90.910156 157.042969 C 91.617188 155.382812 91.503906 153.488281 90.601562 151.925781 C 90.589844 151.90625 90.578125 151.890625 90.570312 151.871094 L 90.566406 151.871094 C 89.808594 150.550781 88.554688 149.589844 87.085938 149.195312 C 85.613281 148.804688 84.046875 149.007812 82.730469 149.769531 L 58.414062 163.808594 C 57.878906 164.121094 57.355469 164.445312 56.847656 164.785156 C 45.019531 172.695312 41.121094 188.457031 48.109375 201.03125 Z M 154.0625 218.960938 C 153.304688 220.28125 153.066406 221.902344 153.457031 223.371094 C 153.851562 224.839844 154.8125 226.09375 156.132812 226.855469 L 180.449219 240.894531 C 180.988281 241.207031 181.53125 241.496094 182.082031 241.765625 C 194.84375 248.050781 210.445312 243.546875 217.835938 231.210938 C 216.476562 225.128906 217.300781 218.539062 220.660156 212.722656 C 224.019531 206.902344 229.3125 202.894531 235.261719 201.03125 C 242.246094 188.457031 238.351562 172.695312 226.519531 164.785156 C 226.011719 164.445312 225.492188 164.121094 224.953125 163.808594 L 200.636719 149.769531 C 199.320312 149.007812 197.753906 148.804688 196.285156 149.195312 C 194.898438 149.566406 193.707031 150.441406 192.9375 151.644531 C 192.890625 151.742188 192.839844 151.839844 192.785156 151.9375 C 191.886719 153.492188 191.769531 155.378906 192.472656 157.035156 C 193.179688 158.6875 194.617188 159.914062 196.363281 160.347656 C 201.035156 161.503906 205.703125 163.328125 210.199219 165.851562 C 210.410156 165.96875 210.621094 166.089844 210.832031 166.210938 C 220.667969 171.890625 224.636719 177.269531 225.554688 182.5625 C 226.144531 185.953125 225.527344 189.460938 223.960938 193.257812 C 222.054688 197.894531 218.636719 203.109375 214.980469 209.441406 C 211.324219 215.777344 208.519531 221.339844 205.457031 225.3125 C 202.949219 228.5625 200.21875 230.851562 196.988281 232.039062 C 191.945312 233.890625 185.304688 233.144531 175.464844 227.464844 C 175.253906 227.34375 175.046875 227.21875 174.835938 227.09375 C 170.40625 224.460938 166.492188 221.328125 163.160156 217.84375 C 161.910156 216.550781 160.125 215.917969 158.339844 216.136719 C 156.550781 216.351562 154.964844 217.402344 154.0625 218.960938 Z M 146.96875 214.863281 C 149.15625 211.074219 153 208.53125 157.347656 208 C 161.695312 207.472656 166.035156 209.015625 169.074219 212.171875 C 169.074219 212.175781 169.078125 212.175781 169.082031 212.179688 C 171.367188 214.574219 173.980469 216.769531 176.886719 218.703125 C 192.121094 208.28125 202.511719 191.289062 203.964844 171.824219 C 200.824219 170.269531 197.609375 169.097656 194.394531 168.300781 C 190.148438 167.25 186.644531 164.265625 184.933594 160.242188 C 183.289062 156.371094 183.484375 151.976562 185.441406 148.285156 C 185.515625 148.109375 185.605469 147.941406 185.703125 147.773438 C 187.550781 144.574219 190.59375 142.238281 194.164062 141.28125 C 195.535156 140.914062 196.941406 140.761719 198.335938 140.820312 C 196.765625 137.449219 194.90625 134.238281 192.785156 131.226562 C 192.136719 132.457031 191.304688 133.59375 190.304688 134.597656 C 187.691406 137.210938 184.148438 138.675781 180.453125 138.675781 L 180.386719 138.675781 C 176.007812 138.675781 171.882812 136.617188 169.253906 133.121094 C 166.621094 129.621094 165.785156 125.085938 167 120.882812 C 167.003906 120.875 167.003906 120.871094 167.003906 120.867188 C 167.933594 117.6875 168.53125 114.324219 168.753906 110.832031 C 160.5625 106.882812 151.378906 104.667969 141.683594 104.667969 C 131.988281 104.667969 122.804688 106.882812 114.613281 110.832031 C 114.835938 114.328125 115.429688 117.699219 116.347656 120.886719 C 117.5625 125.085938 116.726562 129.613281 114.097656 133.109375 C 111.570312 136.46875 107.664062 138.5 103.492188 138.648438 C 103.300781 138.667969 103.109375 138.675781 102.917969 138.675781 C 99.222656 138.675781 95.675781 137.210938 93.066406 134.597656 C 92.0625 133.59375 91.230469 132.457031 90.582031 131.226562 C 88.460938 134.238281 86.601562 137.449219 85.03125 140.820312 C 86.425781 140.761719 87.832031 140.914062 89.203125 141.28125 C 92.773438 142.238281 95.816406 144.574219 97.664062 147.773438 C 97.675781 147.792969 97.6875 147.8125 97.695312 147.828125 C 99.886719 151.621094 100.164062 156.222656 98.449219 160.25 C 96.738281 164.277344 93.226562 167.265625 88.976562 168.320312 C 88.972656 168.320312 88.96875 168.320312 88.964844 168.324219 C 85.746094 169.105469 82.535156 170.273438 79.402344 171.824219 C 80.855469 191.289062 91.246094 208.28125 106.480469 218.707031 C 109.394531 216.765625 112.011719 214.566406 114.308594 212.183594 C 117.339844 209.035156 121.675781 207.492188 126.015625 208.019531 C 130.191406 208.527344 133.902344 210.898438 136.121094 214.4375 C 136.230469 214.589844 136.335938 214.753906 136.433594 214.921875 C 138.28125 218.121094 138.78125 221.921875 137.824219 225.492188 C 137.457031 226.863281 136.886719 228.15625 136.140625 229.335938 C 137.96875 229.496094 139.816406 229.578125 141.683594 229.578125 C 143.550781 229.578125 145.402344 229.496094 147.226562 229.335938 C 146.480469 228.15625 145.910156 226.863281 145.542969 225.492188 C 144.585938 221.921875 145.121094 218.066406 146.96875 214.863281 Z M 141.683594 129.140625 C 161.652344 129.140625 177.839844 145.328125 177.839844 165.296875 C 177.839844 185.265625 161.652344 201.453125 141.683594 201.453125 C 138.09375 201.453125 134.632812 200.925781 131.359375 199.957031 L 112.640625 204.96875 C 111.226562 205.347656 109.71875 204.941406 108.683594 203.90625 C 107.648438 202.871094 107.246094 201.363281 107.621094 199.949219 C 107.621094 199.949219 111.550781 185.285156 111.550781 185.285156 C 107.746094 179.558594 105.527344 172.691406 105.527344 165.296875 C 105.527344 145.328125 121.714844 129.140625 141.683594 129.140625 Z M 141.683594 137.335938 C 126.242188 137.335938 113.722656 149.855469 113.722656 165.296875 C 113.722656 171.578125 115.789062 177.367188 119.285156 182.035156 C 120.039062 183.039062 120.289062 184.335938 119.960938 185.550781 C 119.960938 185.550781 117.375 195.21875 117.375 195.21875 L 130.390625 191.734375 C 131.167969 191.523438 131.984375 191.550781 132.746094 191.804688 C 135.554688 192.738281 138.554688 193.257812 141.683594 193.257812 C 157.125 193.257812 169.644531 180.738281 169.644531 165.296875 C 169.644531 149.855469 157.125 137.335938 141.683594 137.335938 Z M 126.789062 180.542969 C 124.527344 180.542969 122.691406 178.707031 122.691406 176.445312 C 122.691406 174.183594 124.527344 172.347656 126.789062 172.347656 L 156.589844 172.347656 C 158.851562 172.347656 160.6875 174.183594 160.6875 176.445312 C 160.6875 178.707031 158.851562 180.542969 156.589844 180.542969 Z M 126.789062 157.953125 C 124.527344 157.953125 122.691406 156.117188 122.691406 153.855469 C 122.691406 151.597656 124.527344 149.761719 126.789062 149.761719 L 156.589844 149.761719 C 158.851562 149.761719 160.6875 151.597656 160.6875 153.855469 C 160.6875 156.117188 158.851562 157.953125 156.589844 157.953125 Z M 126.789062 169.25 C 124.527344 169.25 122.691406 167.414062 122.691406 165.152344 C 122.691406 162.890625 124.527344 161.054688 126.789062 161.054688 L 156.589844 161.054688 C 158.851562 161.054688 160.6875 162.890625 160.6875 165.152344 C 160.6875 167.414062 158.851562 169.25 156.589844 169.25 Z M 59.5625 153.683594 L 74.566406 145.019531 C 77.636719 135.707031 82.59375 127.242188 88.984375 120.089844 L 88.984375 102.757812 C 73.652344 115.328125 62.882812 133.261719 59.5625 153.683594 Z M 124.261719 69.128906 C 109.875 69.363281 98.171875 80.628906 97.238281 94.832031 C 97.199219 95.4375 97.179688 96.050781 97.179688 96.667969 L 97.179688 124.746094 C 97.179688 126.265625 97.78125 127.726562 98.859375 128.800781 C 99.871094 129.816406 101.226562 130.410156 102.648438 130.476562 C 102.757812 130.46875 102.871094 130.464844 102.980469 130.464844 C 104.777344 130.464844 106.46875 129.617188 107.550781 128.183594 C 108.628906 126.746094 108.972656 124.886719 108.476562 123.160156 L 108.472656 123.15625 C 107.140625 118.53125 106.386719 113.574219 106.324219 108.417969 C 106.320312 108.179688 106.320312 107.9375 106.320312 107.695312 C 106.320312 96.335938 108.992188 90.210938 113.117188 86.769531 C 115.761719 84.566406 119.105469 83.34375 123.179688 82.800781 C 128.148438 82.136719 134.371094 82.488281 141.683594 82.488281 C 148.996094 82.488281 155.21875 82.136719 160.1875 82.800781 C 164.261719 83.34375 167.605469 84.566406 170.25 86.769531 C 174.375 90.210938 177.046875 96.335938 177.046875 107.695312 C 177.046875 107.9375 177.046875 108.179688 177.042969 108.417969 C 176.980469 113.578125 176.226562 118.535156 174.871094 123.164062 C 174.375 124.894531 174.71875 126.757812 175.800781 128.195312 C 176.882812 129.632812 178.582031 130.480469 180.382812 130.484375 C 180.398438 130.484375 180.414062 130.484375 180.429688 130.484375 C 180.441406 130.484375 180.457031 130.484375 180.472656 130.484375 C 181.988281 130.476562 183.4375 129.871094 184.507812 128.800781 C 185.585938 127.726562 186.1875 126.265625 186.1875 124.746094 L 186.1875 96.667969 C 186.1875 96.050781 186.167969 95.4375 186.128906 94.832031 C 185.195312 80.628906 173.492188 69.363281 159.105469 69.128906 C 154.519531 73.351562 148.402344 75.929688 141.683594 75.929688 C 134.964844 75.929688 128.847656 73.351562 124.261719 69.128906 Z M 168.585938 101.785156 C 168.121094 97.503906 167.023438 94.753906 165 93.0625 C 162.988281 91.382812 160.214844 90.925781 156.863281 90.703125 C 152.585938 90.421875 147.496094 90.679688 141.683594 90.679688 C 135.871094 90.679688 130.78125 90.421875 126.503906 90.703125 C 123.152344 90.925781 120.378906 91.382812 118.367188 93.0625 C 116.34375 94.753906 115.246094 97.503906 114.78125 101.785156 C 123.074219 98.363281 132.160156 96.472656 141.683594 96.472656 C 151.207031 96.472656 160.292969 98.363281 168.585938 101.785156 Z M 141.683594 32.632812 C 131.996094 32.632812 124.132812 40.496094 124.132812 50.183594 C 124.132812 59.871094 131.996094 67.734375 141.683594 67.734375 C 151.371094 67.734375 159.234375 59.871094 159.234375 50.183594 C 159.234375 40.496094 151.371094 32.632812 141.683594 32.632812 Z M 127.269531 236.296875 L 112.257812 244.964844 C 121.40625 248.429688 131.324219 250.328125 141.683594 250.328125 C 152.042969 250.328125 161.960938 248.429688 171.109375 244.964844 L 156.097656 236.296875 C 151.445312 237.265625 146.621094 237.773438 141.683594 237.773438 C 136.746094 237.773438 131.921875 237.265625 127.269531 236.296875 Z M 194.382812 102.757812 L 194.382812 120.089844 C 200.773438 127.242188 205.730469 135.707031 208.800781 145.019531 L 223.804688 153.683594 C 220.484375 133.261719 209.714844 115.328125 194.382812 102.757812 Z M 258.15625 234.367188 C 263 225.980469 260.121094 215.238281 251.730469 210.394531 C 243.34375 205.550781 232.601562 208.429688 227.757812 216.816406 C 222.914062 225.207031 225.792969 235.949219 234.179688 240.792969 C 242.570312 245.636719 253.3125 242.757812 258.15625 234.367188 Z M 25.210938 234.367188 C 30.054688 242.757812 40.796875 245.636719 49.1875 240.792969 C 57.574219 235.949219 60.453125 225.207031 55.609375 216.816406 C 50.765625 208.429688 40.023438 205.550781 31.636719 210.394531 C 23.246094 215.238281 20.367188 225.980469 25.210938 234.367188 Z M 71.652344 176.492188 C 68.175781 179.035156 66.339844 181.363281 65.886719 183.964844 C 65.4375 186.542969 66.429688 189.171875 67.914062 192.1875 C 69.808594 196.035156 72.578125 200.3125 75.484375 205.34375 C 78.386719 210.378906 80.707031 214.914062 83.09375 218.476562 C 84.960938 221.269531 86.742188 223.445312 89.203125 224.34375 C 91.683594 225.257812 94.621094 224.828125 98.570312 223.082031 C 84.160156 211.960938 74.160156 195.402344 71.652344 176.492188 Z M 71.652344 176.492188 " fill-opacity="1" fill-rule="evenodd"/></g></svg>