<svg xmlns="http://www.w3.org/2000/svg" xmlns:xlink="http://www.w3.org/1999/xlink" width="378" zoomAndPan="magnify" viewBox="0 0 282.96 283.499989" height="378" preserveAspectRatio="xMidYMid meet" version="1.0"><defs><clipPath id="ec6b47f649"><path d="M 0.230469 0 L 282.691406 0 L 282.691406 283 L 0.230469 283 Z M 0.230469 0 " clip-rule="nonzero"/></clipPath><clipPath id="23374667a7"><path d="M 15.144531 23.6875 L 256 23.6875 L 256 263.265625 L 15.144531 263.265625 Z M 15.144531 23.6875 " clip-rule="nonzero"/></clipPath><clipPath id="540a572da4"><path d="M 131 44 L 272.691406 44 L 272.691406 148 L 131 148 Z M 131 44 " clip-rule="nonzero"/></clipPath></defs><g clip-path="url(#ec6b47f649)"><path fill="#ffffff" d="M 0.230469 0 L 283.230469 0 L 283.230469 283 L 0.230469 283 Z M 0.230469 0 " fill-opacity="1" fill-rule="nonzero"/><path fill="#ffffff" d="M 0.230469 0 L 283.230469 0 L 283.230469 283 L 0.230469 283 Z M 0.230469 0 " fill-opacity="1" fill-rule="nonzero"/></g><g clip-path="url(#23374667a7)"><path fill="#cf0000" d="M 239.632812 99.75 L 223.75 109.832031 C 227.765625 120.34375 230.050781 131.710938 230.050781 143.640625 C 230.050781 196.078125 187.539062 238.585938 135.101562 238.585938 C 82.664062 238.585938 40.152344 196.078125 40.152344 143.640625 C 40.152344 91.203125 82.664062 48.695312 135.101562 48.695312 C 161.535156 48.695312 185.402344 59.53125 202.617188 76.957031 L 218.863281 66.636719 L 219.511719 58.574219 C 197.816406 37.046875 168.007812 23.683594 135.101562 23.683594 C 68.957031 23.683594 15.140625 77.496094 15.140625 143.640625 C 15.140625 209.785156 68.957031 263.597656 135.101562 263.597656 C 201.25 263.597656 255.0625 209.785156 255.0625 143.640625 C 255.0625 129.3125 252.480469 115.582031 247.84375 102.835938 L 239.632812 99.75 " fill-opacity="1" fill-rule="nonzero"/></g><path fill="#cf0000" d="M 185.636719 122.265625 C 188.4375 128.847656 190.089844 136.035156 190.089844 143.640625 C 190.089844 174.007812 165.472656 198.628906 135.101562 198.628906 C 104.730469 198.628906 80.113281 174.007812 80.113281 143.640625 C 80.113281 113.273438 104.730469 88.652344 135.101562 88.652344 C 150.933594 88.652344 165.117188 95.421875 175.148438 106.128906 L 192.941406 94.765625 C 179.023438 78.3125 158.289062 67.808594 135.101562 67.808594 C 93.289062 67.808594 59.269531 101.824219 59.269531 143.640625 C 59.269531 185.453125 93.289062 219.472656 135.101562 219.472656 C 176.914062 219.472656 210.933594 185.453125 210.933594 143.640625 C 210.933594 131.949219 208.199219 120.914062 203.445312 111.019531 L 185.636719 122.265625 " fill-opacity="1" fill-rule="nonzero"/><path fill="#cf0000" d="M 150.402344 144.515625 C 149.941406 152.597656 143.300781 159.03125 135.101562 159.03125 C 126.601562 159.03125 119.710938 152.136719 119.710938 143.640625 C 119.710938 135.140625 126.601562 128.25 135.101562 128.25 C 136.605469 128.25 138.019531 128.546875 139.386719 128.964844 L 158.964844 116.460938 C 152.582031 110.847656 144.246094 107.40625 135.101562 107.40625 C 115.125 107.40625 98.871094 123.660156 98.871094 143.640625 C 98.871094 163.617188 115.125 179.875 135.101562 179.875 C 155.078125 179.875 171.332031 163.617188 171.332031 143.640625 C 171.332031 139.726562 170.65625 135.984375 169.5 132.453125 L 150.402344 144.515625 " fill-opacity="1" fill-rule="nonzero"/><g clip-path="url(#540a572da4)"><path fill="#cf0000" d="M 248.332031 98.566406 L 272.925781 82.953125 L 251.675781 75.632812 L 260.039062 70.351562 C 262.6875 68.667969 263.476562 65.160156 261.792969 62.503906 C 260.117188 59.855469 256.605469 59.074219 253.949219 60.757812 L 245.828125 65.941406 L 248.1875 44.027344 L 223.605469 59.644531 L 221.871094 81.238281 L 217.050781 84.320312 L 218.390625 71.875 L 204.683594 80.585938 L 203.695312 92.84375 L 133.777344 137.488281 C 133.777344 137.488281 129.773438 139.84375 132.546875 144.582031 C 135.113281 148.933594 139.503906 146.464844 139.503906 146.464844 L 210.324219 101.746094 L 221.871094 106.085938 L 235.582031 97.386719 L 223.710938 93.292969 L 227.652344 90.800781 L 248.332031 98.566406 " fill-opacity="1" fill-rule="nonzero"/></g></svg>