<svg xmlns="http://www.w3.org/2000/svg" xmlns:xlink="http://www.w3.org/1999/xlink" width="378" zoomAndPan="magnify" viewBox="0 0 282.96 283.499989" height="378" preserveAspectRatio="xMidYMid meet" version="1.0"><defs><clipPath id="bc987e3e08"><path d="M 0.230469 0 L 282.691406 0 L 282.691406 283 L 0.230469 283 Z M 0.230469 0 " clip-rule="nonzero"/></clipPath><clipPath id="e86bddcb37"><path d="M 9.535156 177 L 273.820312 177 L 273.820312 204 L 9.535156 204 Z M 9.535156 177 " clip-rule="nonzero"/></clipPath><clipPath id="e6de852e70"><path d="M 30 213 L 254 213 L 254 271.828125 L 30 271.828125 Z M 30 213 " clip-rule="nonzero"/></clipPath><clipPath id="146baf6a8d"><path d="M 51 213 L 60 213 L 60 271.828125 L 51 271.828125 Z M 51 213 " clip-rule="nonzero"/></clipPath><clipPath id="39ccf4780c"><path d="M 223 213 L 233 213 L 233 271.828125 L 223 271.828125 Z M 223 213 " clip-rule="nonzero"/></clipPath><clipPath id="b0fefb019d"><path d="M 103 11.289062 L 181 11.289062 L 181 63 L 103 63 Z M 103 11.289062 " clip-rule="nonzero"/></clipPath></defs><g clip-path="url(#bc987e3e08)"><path fill="#ffffff" d="M 0.230469 0 L 283.230469 0 L 283.230469 283 L 0.230469 283 Z M 0.230469 0 " fill-opacity="1" fill-rule="nonzero"/><path fill="#ffffff" d="M 0.230469 0 L 283.230469 0 L 283.230469 283 L 0.230469 283 Z M 0.230469 0 " fill-opacity="1" fill-rule="nonzero"/></g><path fill="#ef4035" d="M 126.675781 186.25 C 126.230469 186.25 125.777344 186.175781 125.332031 186.023438 C 123.175781 185.285156 122.027344 182.933594 122.769531 180.777344 L 132.59375 152.148438 C 133.335938 149.992188 135.683594 148.84375 137.84375 149.585938 C 140 150.324219 141.148438 152.675781 140.40625 154.832031 L 130.582031 183.457031 C 129.992188 185.171875 128.390625 186.25 126.675781 186.25 Z M 126.675781 186.25 " fill-opacity="1" fill-rule="nonzero"/><path fill="#ef4035" d="M 157.320312 186.25 C 155.632812 186.25 154.050781 185.207031 153.4375 183.53125 L 143.03125 154.902344 C 142.25 152.757812 143.355469 150.390625 145.5 149.609375 C 147.644531 148.828125 150.011719 149.9375 150.792969 152.078125 L 161.203125 180.707031 C 161.980469 182.851562 160.875 185.21875 158.730469 186 C 158.265625 186.167969 157.789062 186.25 157.320312 186.25 Z M 157.320312 186.25 " fill-opacity="1" fill-rule="nonzero"/><path fill="#ef4035" d="M 146.910156 157.621094 L 136.5 157.621094 C 134.984375 157.621094 133.589844 156.789062 132.867188 155.457031 L 125.367188 141.582031 C 124.28125 139.574219 125.027344 137.070312 127.035156 135.984375 C 129.042969 134.898438 131.546875 135.644531 132.632812 137.652344 L 138.964844 149.359375 L 144.449219 149.359375 L 150.78125 137.652344 C 151.863281 135.644531 154.371094 134.898438 156.378906 135.984375 C 158.382812 137.070312 159.132812 139.574219 158.046875 141.582031 L 150.542969 155.457031 C 149.824219 156.789062 148.429688 157.621094 146.910156 157.621094 Z M 146.910156 157.621094 " fill-opacity="1" fill-rule="nonzero"/><path fill="#ef4035" d="M 119.84375 151.375 C 119.433594 151.375 119.019531 151.3125 118.613281 151.1875 C 117.273438 150.769531 116.238281 149.699219 115.863281 148.347656 L 108.253906 120.871094 C 107.648438 118.671875 108.9375 116.394531 111.132812 115.785156 C 113.332031 115.179688 115.609375 116.464844 116.21875 118.664062 L 122.117188 139.976562 L 139.0625 125.855469 C 140.816406 124.394531 143.417969 124.632812 144.878906 126.382812 C 146.339844 128.136719 146.101562 130.742188 144.351562 132.203125 L 122.488281 150.417969 C 121.738281 151.046875 120.800781 151.375 119.84375 151.375 Z M 119.84375 151.375 " fill-opacity="1" fill-rule="nonzero"/><path fill="#ef4035" d="M 163.566406 151.375 C 162.613281 151.375 161.675781 151.046875 160.921875 150.417969 L 139.0625 132.203125 C 137.308594 130.742188 137.074219 128.136719 138.53125 126.382812 C 139.992188 124.632812 142.597656 124.394531 144.351562 125.855469 L 161.292969 139.976562 L 167.195312 118.664062 C 167.804688 116.464844 170.082031 115.175781 172.277344 115.785156 C 174.476562 116.394531 175.765625 118.671875 175.15625 120.871094 L 167.546875 148.347656 C 167.171875 149.699219 166.136719 150.769531 164.800781 151.1875 C 164.394531 151.3125 163.980469 151.375 163.566406 151.375 Z M 163.566406 151.375 " fill-opacity="1" fill-rule="nonzero"/><path fill="#ef4035" d="M 105.273438 186.25 C 102.992188 186.25 101.140625 184.398438 101.140625 182.117188 L 101.140625 171.707031 C 101.140625 169.425781 102.992188 167.578125 105.273438 167.578125 C 107.554688 167.578125 109.402344 169.425781 109.402344 171.707031 L 109.402344 182.117188 C 109.402344 184.398438 107.554688 186.25 105.273438 186.25 Z M 105.273438 186.25 " fill-opacity="1" fill-rule="nonzero"/><path fill="#ef4035" d="M 178.140625 186.25 C 175.859375 186.25 174.011719 184.398438 174.011719 182.117188 L 174.011719 171.707031 C 174.011719 169.425781 175.859375 167.578125 178.140625 167.578125 C 180.421875 167.578125 182.269531 169.425781 182.269531 171.707031 L 182.269531 182.117188 C 182.269531 184.398438 180.421875 186.25 178.140625 186.25 Z M 178.140625 186.25 " fill-opacity="1" fill-rule="nonzero"/><path fill="#ef4035" d="M 228.109375 186.25 C 225.828125 186.25 223.976562 184.398438 223.976562 182.117188 L 223.976562 135.046875 C 223.976562 130.589844 222.242188 126.402344 219.089844 123.25 L 209.050781 113.210938 C 207.4375 111.597656 207.4375 108.984375 209.050781 107.371094 C 210.664062 105.757812 213.28125 105.757812 214.894531 107.371094 L 224.929688 117.40625 C 229.644531 122.121094 232.238281 128.386719 232.238281 135.046875 L 232.238281 182.117188 C 232.238281 184.398438 230.390625 186.25 228.109375 186.25 Z M 228.109375 186.25 " fill-opacity="1" fill-rule="nonzero"/><path fill="#ef4035" d="M 55.304688 186.25 C 53.023438 186.25 51.175781 184.398438 51.175781 182.117188 L 51.175781 135.046875 C 51.175781 128.382812 53.769531 122.121094 58.480469 117.40625 L 68.519531 107.371094 C 70.132812 105.757812 72.746094 105.757812 74.359375 107.371094 C 75.972656 108.984375 75.972656 111.597656 74.359375 113.210938 L 64.324219 123.25 C 61.171875 126.398438 59.433594 130.589844 59.433594 135.046875 L 59.433594 182.117188 C 59.433594 184.398438 57.585938 186.25 55.304688 186.25 Z M 55.304688 186.25 " fill-opacity="1" fill-rule="nonzero"/><path fill="#ef4035" d="M 205.726562 186.25 L 77.6875 186.25 C 75.40625 186.25 73.554688 184.398438 73.554688 182.117188 L 73.554688 148.996094 C 73.554688 135.375 82.746094 123.394531 95.902344 119.867188 L 115.453125 114.628906 C 120.824219 113.1875 124.773438 108.738281 125.570312 103.253906 L 125.570312 100.519531 C 125.570312 98.238281 127.421875 96.390625 129.703125 96.390625 C 131.984375 96.390625 133.832031 98.238281 133.832031 100.519531 L 133.832031 103.53125 C 133.832031 103.707031 133.820312 103.882812 133.800781 104.054688 C 132.65625 112.992188 126.296875 120.273438 117.59375 122.609375 L 98.042969 127.847656 C 88.488281 130.410156 81.816406 139.105469 81.816406 148.996094 L 81.816406 177.988281 L 201.597656 177.988281 L 201.597656 148.996094 C 201.597656 139.105469 194.925781 130.410156 185.371094 127.847656 L 165.820312 122.609375 C 157.117188 120.273438 150.753906 112.992188 149.613281 104.054688 C 149.589844 103.882812 149.578125 103.707031 149.578125 103.53125 L 149.578125 100.519531 C 149.578125 98.238281 151.429688 96.390625 153.710938 96.390625 C 155.992188 96.390625 157.839844 98.238281 157.839844 100.519531 L 157.839844 103.253906 C 158.640625 108.738281 162.585938 113.1875 167.957031 114.628906 L 187.511719 119.867188 C 200.667969 123.394531 209.855469 135.375 209.855469 148.996094 L 209.855469 182.117188 C 209.855469 184.398438 208.007812 186.25 205.726562 186.25 Z M 205.726562 186.25 " fill-opacity="1" fill-rule="nonzero"/><path fill="#ef4035" d="M 141.707031 131.667969 C 140.867188 131.667969 140.023438 131.414062 139.304688 130.902344 L 121.371094 118.089844 C 119.511719 116.765625 119.082031 114.183594 120.410156 112.328125 C 121.734375 110.472656 124.316406 110.042969 126.171875 111.367188 L 141.648438 122.421875 L 156.777344 111.074219 C 158.601562 109.703125 161.191406 110.074219 162.5625 111.898438 C 163.929688 113.722656 163.558594 116.3125 161.734375 117.679688 L 144.183594 130.84375 C 143.449219 131.394531 142.578125 131.667969 141.707031 131.667969 Z M 141.707031 131.667969 " fill-opacity="1" fill-rule="nonzero"/><g clip-path="url(#e86bddcb37)"><path fill="#ef4035" d="M 264.542969 203.945312 L 18.871094 203.945312 C 13.722656 203.945312 9.535156 199.757812 9.535156 194.609375 L 9.535156 187.324219 C 9.535156 182.175781 13.722656 177.988281 18.871094 177.988281 L 264.542969 177.988281 C 269.691406 177.988281 273.878906 182.175781 273.878906 187.324219 L 273.878906 194.609375 C 273.878906 199.757812 269.691406 203.945312 264.542969 203.945312 Z M 18.871094 186.25 C 18.277344 186.25 17.796875 186.730469 17.796875 187.324219 L 17.796875 194.609375 C 17.796875 195.203125 18.277344 195.683594 18.871094 195.683594 L 264.542969 195.683594 C 265.136719 195.683594 265.617188 195.203125 265.617188 194.609375 L 265.617188 187.324219 C 265.617188 186.730469 265.132812 186.25 264.542969 186.25 Z M 18.871094 186.25 " fill-opacity="1" fill-rule="nonzero"/></g><path fill="#ef4035" d="M 254.132812 221.640625 L 29.28125 221.640625 C 24.132812 221.640625 19.945312 217.453125 19.945312 212.304688 L 19.945312 199.816406 C 19.945312 197.535156 21.792969 195.683594 24.074219 195.683594 C 26.355469 195.683594 28.207031 197.535156 28.207031 199.816406 L 28.207031 212.304688 C 28.207031 212.898438 28.6875 213.382812 29.28125 213.382812 L 254.132812 213.382812 C 254.726562 213.382812 255.207031 212.898438 255.207031 212.308594 L 255.207031 199.816406 C 255.207031 197.535156 257.054688 195.683594 259.335938 195.683594 C 261.617188 195.683594 263.46875 197.535156 263.46875 199.816406 L 263.46875 212.308594 C 263.46875 217.453125 259.28125 221.640625 254.132812 221.640625 Z M 254.132812 221.640625 " fill-opacity="1" fill-rule="nonzero"/><g clip-path="url(#e6de852e70)"><path fill="#ef4035" d="M 248.925781 271.609375 L 34.484375 271.609375 C 32.203125 271.609375 30.355469 269.761719 30.355469 267.480469 L 30.355469 217.511719 C 30.355469 215.230469 32.203125 213.382812 34.484375 213.382812 C 36.765625 213.382812 38.617188 215.230469 38.617188 217.511719 L 38.617188 263.347656 L 244.796875 263.347656 L 244.796875 217.511719 C 244.796875 215.230469 246.644531 213.382812 248.925781 213.382812 C 251.207031 213.382812 253.058594 215.230469 253.058594 217.511719 L 253.058594 267.480469 C 253.058594 268.574219 252.621094 269.625 251.847656 270.398438 C 251.074219 271.175781 250.023438 271.609375 248.925781 271.609375 Z M 248.925781 271.609375 " fill-opacity="1" fill-rule="nonzero"/></g><g clip-path="url(#146baf6a8d)"><path fill="#ef4035" d="M 55.304688 271.609375 C 53.023438 271.609375 51.175781 269.761719 51.175781 267.480469 L 51.175781 217.511719 C 51.175781 215.230469 53.023438 213.382812 55.304688 213.382812 C 57.585938 213.382812 59.433594 215.230469 59.433594 217.511719 L 59.433594 267.480469 C 59.433594 269.761719 57.585938 271.609375 55.304688 271.609375 Z M 55.304688 271.609375 " fill-opacity="1" fill-rule="nonzero"/></g><g clip-path="url(#39ccf4780c)"><path fill="#ef4035" d="M 228.109375 271.609375 C 225.828125 271.609375 223.976562 269.761719 223.976562 267.480469 L 223.976562 217.511719 C 223.976562 215.230469 225.828125 213.382812 228.109375 213.382812 C 230.390625 213.382812 232.238281 215.230469 232.238281 217.511719 L 232.238281 267.480469 C 232.238281 269.761719 230.390625 271.609375 228.109375 271.609375 Z M 228.109375 271.609375 " fill-opacity="1" fill-rule="nonzero"/></g><g clip-path="url(#b0fefb019d)"><path fill="#ef4035" d="M 175.871094 62.441406 C 173.589844 62.441406 171.742188 60.589844 171.742188 58.308594 L 171.742188 42.03125 C 171.742188 35.234375 168.710938 28.886719 163.425781 24.617188 C 159.457031 21.402344 154.453125 19.632812 149.34375 19.632812 L 134.066406 19.632812 C 128.957031 19.632812 123.957031 21.402344 119.984375 24.617188 C 114.699219 28.886719 111.671875 35.234375 111.671875 42.03125 L 111.671875 58.308594 C 111.671875 60.589844 109.820312 62.441406 107.539062 62.441406 C 105.257812 62.441406 103.410156 60.589844 103.410156 58.308594 L 103.410156 42.03125 C 103.410156 32.730469 107.558594 24.039062 114.789062 18.191406 C 120.226562 13.796875 127.074219 11.375 134.066406 11.375 L 149.34375 11.375 C 156.339844 11.375 163.183594 13.792969 168.621094 18.191406 C 175.855469 24.039062 180.003906 32.730469 180.003906 42.03125 L 180.003906 58.308594 C 180.003906 60.589844 178.152344 62.441406 175.871094 62.441406 Z M 175.871094 62.441406 " fill-opacity="1" fill-rule="nonzero"/></g><path fill="#ef4035" d="M 141.707031 107.390625 C 124.195312 107.390625 109.949219 93.144531 109.949219 75.632812 L 109.949219 56.15625 C 109.949219 53.875 111.796875 52.027344 114.078125 52.027344 C 116.359375 52.027344 118.207031 53.875 118.207031 56.15625 L 118.207031 75.632812 C 118.207031 88.585938 128.75 99.128906 141.707031 99.128906 C 154.664062 99.128906 165.203125 88.585938 165.203125 75.632812 L 165.203125 56.15625 C 165.203125 53.875 167.054688 52.027344 169.335938 52.027344 C 171.613281 52.027344 173.464844 53.875 173.464844 56.15625 L 173.464844 75.632812 C 173.464844 93.140625 159.21875 107.390625 141.707031 107.390625 Z M 141.707031 107.390625 " fill-opacity="1" fill-rule="nonzero"/><path fill="#ef4035" d="M 169.335938 60.289062 C 167.746094 60.289062 166.230469 59.363281 165.550781 57.8125 C 163.90625 54.054688 161.992188 51.691406 160.007812 50.976562 C 158.972656 50.601562 158.347656 50.765625 156.132812 51.621094 C 154.128906 52.394531 151.386719 53.453125 147.636719 53.441406 C 142.386719 53.421875 139.257812 51.367188 136.746094 49.71875 C 135.082031 48.625 133.878906 47.832031 132.195312 47.671875 C 126.945312 47.175781 121.257812 53.335938 117.414062 58.597656 C 116.066406 60.4375 113.480469 60.835938 111.640625 59.492188 C 109.800781 58.144531 109.398438 55.558594 110.746094 53.71875 C 114.789062 48.191406 118.683594 44.363281 122.648438 42.019531 C 126.085938 39.988281 129.558594 39.125 132.976562 39.449219 C 136.699219 39.804688 139.238281 41.472656 141.28125 42.8125 C 143.363281 44.179688 144.871094 45.171875 147.667969 45.179688 C 147.683594 45.179688 147.699219 45.183594 147.714844 45.183594 C 149.878906 45.183594 151.472656 44.566406 153.15625 43.914062 C 155.660156 42.949219 158.769531 41.746094 162.8125 43.207031 C 167.039062 44.734375 170.507812 48.535156 173.117188 54.503906 C 174.03125 56.59375 173.078125 59.027344 170.988281 59.941406 C 170.449219 60.175781 169.890625 60.289062 169.335938 60.289062 Z M 169.335938 60.289062 " fill-opacity="1" fill-rule="nonzero"/><path fill="#ef4035" d="M 172.726562 74.675781 L 169.335938 74.675781 C 167.054688 74.675781 165.203125 72.824219 165.203125 70.542969 L 165.203125 57.503906 C 165.203125 55.222656 167.054688 53.371094 169.335938 53.371094 L 172.726562 53.371094 C 178.601562 53.371094 183.378906 58.152344 183.378906 64.023438 C 183.378906 69.898438 178.601562 74.675781 172.726562 74.675781 Z M 173.464844 61.75 L 173.464844 66.296875 C 174.421875 65.988281 175.117188 65.085938 175.117188 64.023438 C 175.117188 62.960938 174.421875 62.0625 173.464844 61.75 Z M 173.464844 61.75 " fill-opacity="1" fill-rule="nonzero"/><path fill="#ef4035" d="M 114.078125 74.675781 L 110.683594 74.675781 C 104.8125 74.675781 100.035156 69.898438 100.035156 64.023438 C 100.035156 58.152344 104.8125 53.371094 110.683594 53.371094 L 114.078125 53.371094 C 116.359375 53.371094 118.207031 55.222656 118.207031 57.503906 L 118.207031 70.542969 C 118.207031 72.824219 116.359375 74.675781 114.078125 74.675781 Z M 109.949219 61.75 C 108.988281 62.058594 108.292969 62.960938 108.292969 64.023438 C 108.292969 65.085938 108.988281 65.988281 109.949219 66.296875 Z M 109.949219 61.75 " fill-opacity="1" fill-rule="nonzero"/><path fill="#ef4035" d="M 129.28125 69.332031 C 127 69.332031 125.152344 67.480469 125.152344 65.199219 L 125.152344 63.519531 C 125.152344 61.238281 127 59.390625 129.28125 59.390625 C 131.5625 59.390625 133.414062 61.238281 133.414062 63.519531 L 133.414062 65.199219 C 133.414062 67.480469 131.5625 69.332031 129.28125 69.332031 Z M 129.28125 69.332031 " fill-opacity="1" fill-rule="nonzero"/><path fill="#ef4035" d="M 154.128906 69.332031 C 151.847656 69.332031 150 67.480469 150 65.199219 L 150 63.519531 C 150 61.238281 151.847656 59.390625 154.128906 59.390625 C 156.410156 59.390625 158.261719 61.238281 158.261719 63.519531 L 158.261719 65.199219 C 158.261719 67.480469 156.410156 69.332031 154.128906 69.332031 Z M 154.128906 69.332031 " fill-opacity="1" fill-rule="nonzero"/><path fill="#ef4035" d="M 141.707031 89.246094 C 137.933594 89.246094 134.160156 87.808594 131.285156 84.9375 C 129.675781 83.324219 129.675781 80.710938 131.285156 79.097656 C 132.898438 77.484375 135.515625 77.484375 137.128906 79.097656 C 139.652344 81.621094 143.761719 81.621094 146.285156 79.097656 C 147.898438 77.484375 150.511719 77.484375 152.125 79.097656 C 153.738281 80.710938 153.738281 83.324219 152.125 84.9375 C 149.253906 87.808594 145.480469 89.246094 141.707031 89.246094 Z M 141.707031 89.246094 " fill-opacity="1" fill-rule="nonzero"/></svg>